<?xml version="1.0" encoding="utf-8"?>
<!-- Generator: Avocode 2.4.3-3630f5a - http://avocode.com -->
<svg height="45" width="39" xmlns:xlink="http://www.w3.org/1999/xlink" xmlns="http://www.w3.org/2000/svg" viewBox="0 0 39 45">
    <path fill="#f39c12" fill-rule="evenodd" d="M 37.86 39.42 C 37.86 39.42 33.87 39.59 33.87 39.59 C 33.06 39.63 32.04 40.22 31.61 40.9 C 31.61 40.9 29.49 44.26 29.49 44.26 C 29.05 44.94 28.37 44.93 27.96 44.23 C 27.96 44.23 22.02 34.08 22.01 34.08 C 21.91 33.88 21.78 33.98 21.72 34.02 C 21.05 34.6 20.36 35.12 19.62 35.12 C 18.86 35.12 17.95 34.57 17.3 34.02 C 17.24 33.97 17.12 33.94 17 34.08 C 17 34.08 11.06 44.29 11.06 44.29 C 10.65 44.99 9.96 45 9.52 44.31 C 9.52 44.31 7.4 40.96 7.4 40.96 C 6.96 40.28 5.94 39.69 5.13 39.66 C 5.13 39.66 1.14 39.49 1.14 39.49 C 0.33 39.46 0 38.86 0.41 38.16 C 0.41 38.16 5.54 29.35 6.18 28.25 C 6.32 28.05 6.12 27.93 6.01 27.9 C 5.07 27.62 4.14 27.33 3.73 26.63 C 2.97 25.34 4.31 23.21 3.95 21.83 C 3.59 20.4 1.44 19.17 1.44 17.72 C 1.44 16.11 3.66 14.71 4.01 13.32 C 4.36 11.93 3.02 9.81 3.78 8.52 C 4.53 7.22 7.05 7.32 8.08 6.33 C 9.15 5.31 9.14 2.81 10.42 2.13 C 11.71 1.44 13.82 2.82 15.25 2.49 C 15.63 2.41 18.02 0 19.52 0 C 21 0 22.27 2.12 23.68 2.45 C 25.12 2.77 27.22 1.39 28.51 2.07 C 29.79 2.76 29.79 5.25 30.86 6.27 C 31.89 7.26 34.41 7.16 35.17 8.45 C 35.92 9.74 34.59 11.86 34.94 13.25 C 35.3 14.67 37.52 16.32 37.52 17.73 C 37.52 19.18 35.38 20.41 35.01 21.84 C 34.66 23.23 36 25.35 35.25 26.64 C 34.8 27.41 33.71 27.69 32.69 28 C 33.59 29.53 38.59 38.08 38.59 38.08 C 39 38.78 38.67 39.38 37.86 39.42 Z M 30.88 10.93 C 29.68 8.88 28.01 7.27 26.07 6.16 C 26.03 6.14 25.98 6.11 25.93 6.08 C 25.9 6.07 25.87 6.05 25.84 6.03 C 19.57 2.64 11.66 4.82 8.07 10.99 C 4.51 17.09 6.46 24.88 12.37 28.64 C 16.41 31.18 21.7 31.45 26.1 28.9 C 32.4 25.26 34.55 17.19 30.88 10.93 Z M 13.93 27.15 C 13.8 27.07 13.67 27 13.55 26.92 C 12.06 25.99 10.77 24.71 9.83 23.1 C 6.74 17.83 8.55 11.04 13.85 7.98 C 17.43 5.91 21.69 6.05 25.04 7.97 C 25.06 7.99 25.08 7.99 25.09 8.01 C 30.4 11.06 32.22 17.84 29.14 23.12 C 26.07 28.4 19.24 30.21 13.93 27.15 Z M 26.02 15.41 C 26.02 15.41 23.45 15.04 23.45 15.04 C 22.66 14.93 21.71 14.24 21.36 13.53 C 21.36 13.53 20.21 11.21 20.21 11.21 C 19.85 10.5 19.27 10.5 18.91 11.21 C 18.91 11.21 17.77 13.53 17.77 13.53 C 17.41 14.24 16.47 14.93 15.67 15.04 C 15.67 15.04 13.1 15.41 13.1 15.41 C 12.31 15.53 12.13 16.08 12.7 16.64 C 12.7 16.64 14.56 18.44 14.56 18.44 C 15.14 18.99 15.5 20.1 15.36 20.88 C 15.36 20.88 14.92 23.43 14.92 23.43 C 14.79 24.22 15.26 24.55 15.97 24.18 C 15.97 24.18 18.27 22.98 18.27 22.98 C 18.98 22.61 20.14 22.61 20.86 22.98 C 20.86 22.98 23.15 24.18 23.15 24.18 C 23.87 24.55 24.34 24.22 24.2 23.43 C 24.2 23.43 23.76 20.88 23.76 20.88 C 23.63 20.1 23.99 18.99 24.56 18.44 C 24.56 18.44 26.42 16.64 26.42 16.64 C 27 16.08 26.82 15.53 26.02 15.41 Z" />
</svg>