<?xml version="1.0" encoding="utf-8"?>
<!-- Generator: Avocode 2.4.3-3630f5a - http://avocode.com -->
<svg height="33" width="51" xmlns:xlink="http://www.w3.org/1999/xlink" xmlns="http://www.w3.org/2000/svg" viewBox="0 0 51 33">
    <path fill="#f39c12" fill-rule="evenodd" d="M 44.31 33 C 44.31 33 6.69 33 6.69 33 C 0.78 33 0.02 28.39 0.01 28.35 C 0 28.27 0.02 28.2 0.07 28.14 C 0.12 28.09 0.19 28.05 0.27 28.05 C 0.27 28.05 50.73 28.05 50.73 28.05 C 50.81 28.05 50.88 28.09 50.93 28.14 C 50.98 28.2 51 28.27 50.99 28.35 C 50.98 28.39 50.22 33 44.31 33 Z M 29.3 29.67 C 29.3 29.67 21.7 29.67 21.7 29.67 C 21.7 29.67 21.7 31.39 21.7 31.39 C 21.7 31.39 29.3 31.39 29.3 31.39 C 29.3 31.39 29.3 29.67 29.3 29.67 Z M 45.49 26.26 C 45.49 26.26 5.51 26.26 5.51 26.26 C 4.93 26.26 4.46 25.8 4.46 25.23 C 4.46 25.23 4.46 1.03 4.46 1.03 C 4.46 0.46 4.93 0 5.51 0 C 5.51 0 45.49 0 45.49 0 C 46.07 0 46.54 0.46 46.54 1.03 C 46.54 1.03 46.54 25.23 46.54 25.23 C 46.54 25.8 46.07 26.26 45.49 26.26 Z M 42.87 3.61 C 42.87 3.61 8.13 3.61 8.13 3.61 C 8.13 3.61 8.13 22.65 8.13 22.65 C 8.13 22.65 42.87 22.65 42.87 22.65 C 42.87 22.65 42.87 3.61 42.87 3.61 Z" />
</svg>