<?xml version="1.0" encoding="utf-8"?>
<!-- Generator: Avocode 2.4.3-3630f5a - http://avocode.com -->
<svg height="46" width="36" xmlns:xlink="http://www.w3.org/1999/xlink" xmlns="http://www.w3.org/2000/svg" viewBox="0 0 36 46">
    <path fill="#f39c12" fill-rule="evenodd" d="M 33.67 45.99 C 33.67 45.99 21.27 45.99 21.27 45.99 C 21.27 45.99 19.38 35.17 19.38 35.17 C 20.23 35.16 20.85 34.37 20.65 33.53 C 20.65 33.53 20.11 31.29 20.11 31.29 C 20.05 31.04 19.92 30.82 19.74 30.64 C 19.79 30.61 19.84 30.57 19.9 30.52 C 19.9 30.52 24.7 26.52 24.7 26.52 C 24.7 26.52 27.59 27.21 27.59 27.21 C 32.55 28.38 36 32.59 36 37.41 C 36 37.41 36 43.75 36 43.75 C 36 45 34.99 45.99 33.67 45.99 Z M 27.27 19.84 C 25.55 24.06 22.15 27.55 18.11 27.55 C 14.09 27.55 10.69 24.08 8.96 19.87 C 7.69 19.66 6.48 18.67 6.28 16.34 C 6.1 14.1 6.84 13.19 7.78 12.83 C 7.93 8.74 8.92 6.21 10.38 4.65 C 11.28 3.47 12.81 2.32 13.78 1.72 C 21.48 -2.99 25.42 3.72 25.42 3.72 C 25.42 3.72 30.7 5.26 28.78 13.09 C 29.47 13.57 29.94 14.51 29.79 16.34 C 29.61 18.57 28.49 19.57 27.27 19.84 Z M 26.51 13.81 C 25.96 11.86 24.88 9.24 22.8 7.16 C 20.61 9.53 16.59 12.28 9.78 11.98 C 9.74 12.6 9.71 13.26 9.71 13.99 C 9.71 19.24 13.46 25.59 18.11 25.59 C 22.77 25.59 26.51 19.24 26.51 13.98 C 26.51 13.93 26.51 13.87 26.51 13.81 Z M 11.39 26.52 C 11.39 26.52 16.2 30.52 16.2 30.52 C 16.25 30.57 16.31 30.61 16.36 30.64 C 16.18 30.82 16.05 31.04 15.99 31.29 C 15.99 31.29 15.45 33.53 15.45 33.53 C 15.25 34.37 15.87 35.15 16.72 35.16 C 16.72 35.16 14.83 45.99 14.83 45.99 C 14.83 45.99 2.43 45.99 2.43 45.99 C 1.11 45.99 0 45 0 43.75 C 0 43.75 0 37.41 0 37.41 C 0 32.59 3.5 28.38 8.46 27.21 C 8.46 27.21 11.39 26.52 11.39 26.52 Z" />
</svg>